<?xml version="1.0" encoding="UTF-8" standalone="no"?>
<!-- Created with Inkscape (http://www.inkscape.org/) -->

<svg
   width="300mm"
   height="350mm"
   viewBox="0 0 300 350"
   version="1.1"
   id="svg5"
   xml:space="preserve"
   inkscape:version="1.2.2 (732a01da63, 2022-12-09)"
   sodipodi:docname="temp1.svg"
   xmlns:inkscape="http://www.inkscape.org/namespaces/inkscape"
   xmlns:sodipodi="http://sodipodi.sourceforge.net/DTD/sodipodi-0.dtd"
   xmlns="http://www.w3.org/2000/svg"
   xmlns:svg="http://www.w3.org/2000/svg"><sodipodi:namedview
     id="namedview7"
     pagecolor="#ffffff"
     bordercolor="#000000"
     borderopacity="0.25"
     inkscape:showpageshadow="2"
     inkscape:pageopacity="0.0"
     inkscape:pagecheckerboard="0"
     inkscape:deskcolor="#d1d1d1"
     inkscape:document-units="mm"
     showgrid="false"
     inkscape:zoom="0.76969697"
     inkscape:cx="394.96063"
     inkscape:cy="563.20866"
     inkscape:window-width="1920"
     inkscape:window-height="1051"
     inkscape:window-x="-9"
     inkscape:window-y="-9"
     inkscape:window-maximized="1"
     inkscape:current-layer="layer1" /><defs
     id="defs2" /><g
     inkscape:label="Layer 1"
     inkscape:groupmode="layer"
     id="layer1"><g
       aria-label="RUTHVIK - 786"
       transform="matrix(1,0,0,-1,0,65.616699)"
       id="text10526"
       style="font-size:31.75px;fill:none;stroke:#000000;stroke-width:0.264999"><path
         d="m 49.200485,-144.18275 q 1.007691,0.34106 1.953369,1.45727 0.961182,1.11621 1.922364,3.06958 l 3.1781,6.3252 h -3.364136 l -2.961059,-5.93763 q -1.147217,-2.32544 -2.232422,-3.08508 -1.069702,-0.75964 -2.930054,-0.75964 h -3.410644 v 9.78235 h -3.131592 v -23.14588 h 7.069336 q 3.96875,0 5.922119,1.65882 1.953369,1.65881 1.953369,5.00744 0,2.18592 -1.023193,3.62769 -1.007691,1.44177 -2.945557,1.99988 z m -7.844482,-9.72034 v 8.21655 h 3.937744 q 2.263428,0 3.410644,-1.03869 1.16272,-1.0542 1.16272,-3.08509 0,-2.03088 -1.16272,-3.05408 -1.147216,-1.03869 -3.410644,-1.03869 z"
         style="stroke-width:0.265"
         id="path10578" /><path
         d="m 59.928513,-156.47658 h 3.147094 v 14.06116 q 0,3.7207 1.348755,5.36401 1.348755,1.62781 4.371826,1.62781 3.007569,0 4.356324,-1.62781 1.348754,-1.64331 1.348754,-5.36401 v -14.06116 h 3.147095 v 14.44873 q 0,4.52686 -2.247925,6.83679 -2.232421,2.30994 -6.604248,2.30994 -4.387329,0 -6.635254,-2.30994 -2.232421,-2.30993 -2.232421,-6.83679 z"
         style="stroke-width:0.265"
         id="path10580" /><path
         d="m 80.314865,-156.47658 h 19.5802 v 2.6355 h -8.216552 v 20.51038 h -3.147095 v -20.51038 h -8.216553 z"
         style="stroke-width:0.265"
         id="path10582" /><path
         d="m 102.91814,-156.47658 h 3.13159 v 9.4878 h 11.37915 v -9.4878 h 3.13159 v 23.14588 h -3.13159 v -11.02259 h -11.37915 v 11.02259 h -3.13159 z"
         style="stroke-width:0.265"
         id="path10584" /><path
         d="m 132.76128,-133.3307 -8.83667,-23.14588 h 3.27111 l 7.33289,19.48718 7.34839,-19.48718 h 3.25561 l -8.82116,23.14588 z"
         style="stroke-width:0.265"
         id="path10586" /><path
         d="m 148.51225,-156.47658 h 3.13159 v 23.14588 h -3.13159 z"
         style="stroke-width:0.265"
         id="path10588" /><path
         d="m 157.87602,-156.47658 h 3.13159 v 9.78235 l 10.38697,-9.78235 h 4.03076 l -11.48767,10.79004 12.30932,12.35584 h -4.12378 l -11.1156,-11.14661 v 11.14661 h -3.13159 z"
         style="stroke-width:0.265"
         id="path10590" /><path
         d="m 187.22307,-143.29909 h 8.35608 v 2.54248 h -8.35608 z"
         style="stroke-width:0.265"
         id="path10592" /><path
         d="m 209.82634,-156.47658 h 14.88281 v 1.33325 l -8.40259,21.81263 h -3.27111 l 7.90649,-20.51038 h -11.1156 z"
         style="stroke-width:0.265"
         id="path10594" /><path
         d="m 237.51457,-144.32228 q -2.23242,0 -3.51916,1.19372 -1.27124,1.19373 -1.27124,3.28663 0,2.09289 1.27124,3.28662 1.28674,1.19372 3.51916,1.19372 2.23242,0 3.51917,-1.19372 1.28674,-1.20923 1.28674,-3.28662 0,-2.0929 -1.28674,-3.28663 -1.27124,-1.19372 -3.51917,-1.19372 z m -3.13159,-1.33325 q -2.01538,-0.4961 -3.14709,-1.87586 -1.11622,-1.37976 -1.11622,-3.36413 0,-2.77503 1.96888,-4.38733 1.98437,-1.61231 5.42602,-1.61231 3.45716,0 5.42603,1.61231 1.96887,1.6123 1.96887,4.38733 0,1.98437 -1.13171,3.36413 -1.11622,1.37976 -3.11609,1.87586 2.26342,0.5271 3.51916,2.06189 1.27124,1.53479 1.27124,3.75171 0,3.36413 -2.06189,5.16247 -2.04638,1.79834 -5.87561,1.79834 -3.82922,0 -5.89111,-1.79834 -2.04639,-1.79834 -2.04639,-5.16247 0,-2.21692 1.27124,-3.75171 1.27124,-1.53479 3.53467,-2.06189 z m -1.14722,-4.94544 q 0,1.79834 1.11621,2.80603 1.13172,1.00769 3.1626,1.00769 2.01538,0 3.1471,-1.00769 1.14721,-1.00769 1.14721,-2.80603 0,-1.79834 -1.14721,-2.80603 -1.13172,-1.00769 -3.1471,-1.00769 -2.03088,0 -3.1626,1.00769 -1.11621,1.00769 -1.11621,2.80603 z"
         style="stroke-width:0.265"
         id="path10596" /><path
         d="m 258.10246,-146.15163 q -2.1084,0 -3.34863,1.44178 -1.22473,1.44177 -1.22473,3.95324 0,2.49597 1.22473,3.95325 1.24023,1.44177 3.34863,1.44177 2.1084,0 3.33313,-1.44177 1.24024,-1.45728 1.24024,-3.95325 0,-2.51147 -1.24024,-3.95324 -1.22473,-1.44178 -3.33313,-1.44178 z m 6.21668,-9.81335 v 2.85254 q -1.17823,-0.55811 -2.38745,-0.85266 -1.19373,-0.29456 -2.37195,-0.29456 -3.10059,0 -4.7439,2.0929 -1.62781,2.09289 -1.86035,6.32519 0.91467,-1.34875 2.29443,-2.06189 1.37976,-0.72864 3.03858,-0.72864 3.48816,0 5.50354,2.12391 2.03088,2.10839 2.03088,5.75158 0,3.56568 -2.1084,5.72058 -2.1084,2.15491 -5.61206,2.15491 -4.01526,0 -6.13916,-3.06958 -2.1239,-3.08508 -2.1239,-8.92969 0,-5.48803 2.60449,-8.74365 2.6045,-3.27112 6.99182,-3.27112 1.17823,0 2.37195,0.23255 1.20923,0.23254 2.51148,0.69763 z"
         style="stroke-width:0.265"
         id="path10598" /></g></g></svg>
